<svg xmlns="http://www.w3.org/2000/svg" xmlns:xlink="http://www.w3.org/1999/xlink" width="96" height="27.242" viewBox="0 0 96 27.242">
  <defs>
    <clipPath id="clip-path">
      <rect id="사각형_64" data-name="사각형 64" width="96" height="27.242" fill="none"/>
    </clipPath>
  </defs>
  <g id="logo" transform="translate(-739 -73)">
    <g id="그룹_4" data-name="그룹 4" transform="translate(739 73)" clip-path="url(#clip-path)">
      <path id="패스_1" data-name="패스 1" d="M64.856,26.2H62.492v4.677H61.325V25.257h3.531ZM63.8,30.358a12.782,12.782,0,0,0,1.535-.194l.089.952a12.481,12.481,0,0,1-1.559.209q-.763.053-1.893.057h-.644V30.4h.644q1.077,0,1.828-.047M67,33.12H65.934v-8.8H67Zm1.344-4.342H66.661v-.936H68.34Zm.826,4.807h-1.1V24.137h1.1Z" transform="translate(-28.777 -11.327)" fill="#15205f"/>
      <path id="패스_2" data-name="패스 2" d="M81.136,27.707a3.94,3.94,0,0,1-.908,1.374,3.778,3.778,0,0,1-1.446.884l-.6-.942a3.526,3.526,0,0,0,1.256-.7,3.113,3.113,0,0,0,.79-1.054,2.968,2.968,0,0,0,.266-1.235v-.664h.952v.664a4.521,4.521,0,0,1-.309,1.677m2.5-1.928H78.52v-.942h5.116Zm-2.553,7.23H79.917V30.456h1.167Zm5.279.419H79.917v-.952h6.445Zm-4.429-6.257a3.037,3.037,0,0,0,.758.989,3.446,3.446,0,0,0,1.206.675l-.581.926a3.646,3.646,0,0,1-1.408-.842,3.8,3.8,0,0,1-.882-1.305,4.134,4.134,0,0,1-.3-1.572v-.675h.947v.675a2.617,2.617,0,0,0,.259,1.13m3.649.434h-2.3v-.947h2.3Zm.539,3.463H84.96V24.157h1.161Z" transform="translate(-36.687 -11.336)" fill="#15205f"/>
      <path id="패스_3" data-name="패스 3" d="M104.287,30.039H95.676V29.1h8.611Zm-1.051,3.751h-1.167V31.7H96.628v-.915h6.608Zm-5.3-8.276h4.081v-.941h1.156v3.615H96.791V24.572h1.145Zm4.081.864h-4.08v.89h4.08Zm-1.465,2.95H99.385V27.8h1.167Z" transform="translate(-44.897 -11.531)" fill="#15205f"/>
      <path id="패스_4" data-name="패스 4" d="M118.737,25.887h-5.614v-.926h5.614Zm-1.6.523a1.825,1.825,0,0,1,.813.586,1.45,1.45,0,0,1,0,1.755,1.854,1.854,0,0,1-.816.586,3.625,3.625,0,0,1-2.412,0,1.85,1.85,0,0,1-.816-.586,1.472,1.472,0,0,1,0-1.755,1.817,1.817,0,0,1,.816-.586,3.668,3.668,0,0,1,2.414,0m-1.512,4.384h3.793v-.816h1.161v3.437h-6.116V29.978h1.162Zm-.317-3.625a.91.91,0,0,0-.418.278.7.7,0,0,0,0,.86.917.917,0,0,0,.416.277,1.861,1.861,0,0,0,.631.1,1.881,1.881,0,0,0,.633-.1.955.955,0,0,0,.424-.277.682.682,0,0,0,0-.86.946.946,0,0,0-.426-.278,1.833,1.833,0,0,0-.628-.089,1.811,1.811,0,0,0-.625.089m1.211-1.7h-1.167V24.009h1.167Zm2.9,6.22h-3.793V32.5h3.793Zm1.161-2.092h-1.161V24.077h1.161Zm1.324-2.224h-1.794v-.973H121.9Z" transform="translate(-53.084 -11.266)" fill="#15205f"/>
      <path id="패스_5" data-name="패스 5" d="M135.793,25.9h-3.249v4.876h-1.167V24.959h4.415Zm-1.381,4.518a17.659,17.659,0,0,0,1.862-.2l.12.936a19.74,19.74,0,0,1-1.967.212q-.973.055-2.307.055h-.743v-.953h.743q1.366,0,2.292-.049m1.015-1.9h-3.16V27.6h3.16Zm2.443-.027h-1.925v-.942h1.925Zm1,5.117h-1.151V24.138h1.151Z" transform="translate(-61.65 -11.327)" fill="#15205f"/>
      <path id="패스_6" data-name="패스 6" d="M153.452,31.3h-4.5V25.028h4.5Zm-3.348-.926h2.213V25.938H150.1Zm6.215,3.239h-1.177V24.138h1.177Z" transform="translate(-69.897 -11.327)" fill="#15205f"/>
      <path id="패스_7" data-name="패스 7" d="M167.634,28.4h-1.156v-3.84h1.156Zm1.771-.761a18.735,18.735,0,0,0,2.022-.264l.162.952a20.578,20.578,0,0,1-2.137.278q-1.044.078-2.215.079h-.759v-.963h.759q1.161-.006,2.168-.081m4.449,4.177H168.8v1.235h-1.156V30.928h5.038v-.664h-5.059v-.921h6.23Zm.267,1.663h-6.477V32.54h6.477Zm-1.182-6.984h-2.71v-.931h2.71Zm.915,2.47h-1.161V24.138h1.161Z" transform="translate(-78.121 -11.327)" fill="#15205f"/>
      <path id="패스_8" data-name="패스 8" d="M63.178,15.043h-.557v-3.1h.557Zm-.294,0v-.485h.758a1.107,1.107,0,0,0,.542-.12.756.756,0,0,0,.325-.357,1.406,1.406,0,0,0,.109-.592,1.423,1.423,0,0,0-.108-.592.749.749,0,0,0-.322-.356,1.054,1.054,0,0,0-.53-.117h-.792V11.94h.823a1.625,1.625,0,0,1,.8.184,1.231,1.231,0,0,1,.512.535,2.027,2.027,0,0,1,0,1.662,1.246,1.246,0,0,1-.518.536,1.65,1.65,0,0,1-.808.186Z" transform="translate(-29.385 -5.603)" fill="#15205f"/>
      <path id="패스_9" data-name="패스 9" d="M69.49,14.682l-.13.01c-.106,0-.2.01-.289.017a.6.6,0,0,0-.313.1.276.276,0,0,0-.111.234.269.269,0,0,0,.051.167.317.317,0,0,0,.14.1.526.526,0,0,0,.2.033.616.616,0,0,0,.285-.064.478.478,0,0,0,.192-.175.453.453,0,0,0,.067-.241l0-.744a.391.391,0,0,0-.047-.2.292.292,0,0,0-.143-.123.594.594,0,0,0-.232-.04.514.514,0,0,0-.289.074.328.328,0,0,0-.143.2H68.2a.679.679,0,0,1,.145-.357.823.823,0,0,1,.338-.247,1.286,1.286,0,0,1,.5-.089,1.381,1.381,0,0,1,.463.075.734.734,0,0,1,.351.255.771.771,0,0,1,.138.469V15.7H69.6v-.322h-.018a.654.654,0,0,1-.256.266.828.828,0,0,1-.429.1.953.953,0,0,1-.4-.081.638.638,0,0,1-.278-.239.69.69,0,0,1-.1-.382.579.579,0,0,1,.243-.521,1.274,1.274,0,0,1,.625-.186l.228-.014c.084,0,.165-.009.243-.012l.152,0,0,.36-.125.01" transform="translate(-31.966 -6.263)" fill="#15205f"/>
      <path id="패스_10" data-name="패스 10" d="M73.211,15.6a.976.976,0,0,1-.392-.416,1.519,1.519,0,0,1,0-1.265,1.016,1.016,0,0,1,.387-.425,1.094,1.094,0,0,1,.579-.15,1.136,1.136,0,0,1,.536.126.924.924,0,0,1,.383.39,1.367,1.367,0,0,1,.142.656v.171h-1.9v-.37h1.382a.622.622,0,0,0-.067-.282.48.48,0,0,0-.186-.2.541.541,0,0,0-.278-.071.548.548,0,0,0-.5.293.624.624,0,0,0-.074.292v.317a.756.756,0,0,0,.075.349.537.537,0,0,0,.209.224.612.612,0,0,0,.314.079.643.643,0,0,0,.209-.032.5.5,0,0,0,.159-.086.39.39,0,0,0,.1-.124h.536a.8.8,0,0,1-.186.352.884.884,0,0,1-.347.232,1.317,1.317,0,0,1-.479.082,1.192,1.192,0,0,1-.6-.146" transform="translate(-34.106 -6.262)" fill="#15205f"/>
      <path id="패스_11" data-name="패스 11" d="M77.773,12.585v2.46a.832.832,0,0,1-.093.413.578.578,0,0,1-.273.246,1.062,1.062,0,0,1-.442.081l-.113,0v-.446a.559.559,0,0,0,.083,0A.356.356,0,0,0,77.1,15.3a.206.206,0,0,0,.094-.1.415.415,0,0,0,.032-.166V12.585Zm-.434-.373a.327.327,0,0,1-.115-.107.266.266,0,0,1-.043-.148.276.276,0,0,1,.043-.15.3.3,0,0,1,.115-.107.324.324,0,0,1,.158-.039.333.333,0,0,1,.159.039.305.305,0,0,1,.116.107.269.269,0,0,1,.044.15.259.259,0,0,1-.044.148.332.332,0,0,1-.116.107.326.326,0,0,1-.316,0" transform="translate(-36.063 -5.473)" fill="#15205f"/>
      <path id="패스_12" data-name="패스 12" d="M79.916,15.6a.976.976,0,0,1-.392-.416,1.519,1.519,0,0,1,0-1.265,1.016,1.016,0,0,1,.387-.425,1.094,1.094,0,0,1,.579-.15,1.136,1.136,0,0,1,.536.126.924.924,0,0,1,.383.39,1.366,1.366,0,0,1,.142.656v.171h-1.9v-.37h1.382a.622.622,0,0,0-.067-.282.48.48,0,0,0-.186-.2.541.541,0,0,0-.278-.071.548.548,0,0,0-.5.293.624.624,0,0,0-.074.292v.317a.755.755,0,0,0,.075.349.537.537,0,0,0,.209.224.612.612,0,0,0,.314.079.643.643,0,0,0,.209-.032.5.5,0,0,0,.159-.086.39.39,0,0,0,.1-.124h.536a.8.8,0,0,1-.186.352.884.884,0,0,1-.347.232,1.317,1.317,0,0,1-.479.082,1.192,1.192,0,0,1-.6-.146" transform="translate(-37.253 -6.262)" fill="#15205f"/>
      <path id="패스_13" data-name="패스 13" d="M84.6,15.6a1,1,0,0,1-.39-.421,1.509,1.509,0,0,1,0-1.258,1,1,0,0,1,.39-.422,1.23,1.23,0,0,1,1.178,0,.993.993,0,0,1,.388.422,1.536,1.536,0,0,1,0,1.258.994.994,0,0,1-.388.421,1.234,1.234,0,0,1-1.178,0m.9-.386a.6.6,0,0,0,.188-.274,1.259,1.259,0,0,0,0-.784.607.607,0,0,0-.188-.275.47.47,0,0,0-.3-.1.489.489,0,0,0-.313.1.612.612,0,0,0-.192.275,1.211,1.211,0,0,0,0,.784.6.6,0,0,0,.192.274.494.494,0,0,0,.313.1.475.475,0,0,0,.3-.1" transform="translate(-39.452 -6.262)" fill="#15205f"/>
      <path id="패스_14" data-name="패스 14" d="M89.628,15.7h-.544V13.375H89.6v.394h.025a.663.663,0,0,1,.262-.312.794.794,0,0,1,.433-.113.835.835,0,0,1,.421.1.678.678,0,0,1,.277.3,1.058,1.058,0,0,1,.1.473V15.7h-.544V14.3a.611.611,0,0,0-.054-.266.393.393,0,0,0-.157-.171.478.478,0,0,0-.244-.06.521.521,0,0,0-.257.062.428.428,0,0,0-.174.184.617.617,0,0,0-.062.286Z" transform="translate(-41.803 -6.262)" fill="#15205f"/>
      <path id="패스_15" data-name="패스 15" d="M94.3,16.537a.835.835,0,0,1-.361-.247.675.675,0,0,1-.151-.379h.544a.319.319,0,0,0,.163.225.7.7,0,0,0,.347.075.61.61,0,0,0,.4-.117.446.446,0,0,0,.142-.365v-.443h-.028l-.008.017a.751.751,0,0,1-.134.18.656.656,0,0,1-.211.133.812.812,0,0,1-.315.056.951.951,0,0,1-.494-.133.891.891,0,0,1-.343-.39,1.432,1.432,0,0,1-.125-.63,1.463,1.463,0,0,1,.126-.634.929.929,0,0,1,.345-.4.907.907,0,0,1,.49-.136A.776.776,0,0,1,95,13.4a.619.619,0,0,1,.2.136.99.99,0,0,1,.139.188.2.2,0,0,1,.019.034h.028v-.384h.538v2.366a.792.792,0,0,1-.523.784,1.516,1.516,0,0,1-.567.1,1.5,1.5,0,0,1-.533-.087m.835-1.383a.533.533,0,0,0,.189-.245,1.011,1.011,0,0,0,.065-.383,1.089,1.089,0,0,0-.066-.388.553.553,0,0,0-.188-.255.544.544,0,0,0-.6,0,.56.56,0,0,0-.188.26,1.077,1.077,0,0,0-.063.381,1.007,1.007,0,0,0,.064.378.54.54,0,0,0,.187.247.5.5,0,0,0,.3.088.513.513,0,0,0,.3-.086" transform="translate(-43.982 -6.263)" fill="#15205f"/>
      <path id="패스_16" data-name="패스 16" d="M100.61,11.941h2.475v.469h-.958v2.634h-.555V12.41h-.962Z" transform="translate(-47.212 -5.603)" fill="#15205f"/>
      <path id="패스_17" data-name="패스 17" d="M105.753,15.6a.976.976,0,0,1-.392-.416,1.519,1.519,0,0,1,0-1.265,1.016,1.016,0,0,1,.387-.425,1.094,1.094,0,0,1,.579-.15,1.136,1.136,0,0,1,.536.126.924.924,0,0,1,.383.39,1.366,1.366,0,0,1,.142.656v.171h-1.9v-.37h1.382a.622.622,0,0,0-.067-.282.48.48,0,0,0-.186-.2.542.542,0,0,0-.278-.071.549.549,0,0,0-.5.293.624.624,0,0,0-.074.292v.317a.756.756,0,0,0,.075.349.537.537,0,0,0,.209.224.612.612,0,0,0,.314.079.643.643,0,0,0,.209-.032.5.5,0,0,0,.159-.086.39.39,0,0,0,.1-.124h.536a.8.8,0,0,1-.186.352.884.884,0,0,1-.347.232,1.317,1.317,0,0,1-.479.082,1.192,1.192,0,0,1-.6-.146" transform="translate(-49.377 -6.262)" fill="#15205f"/>
      <path id="패스_18" data-name="패스 18" d="M110.1,13.372h.527v.388h.026a.567.567,0,0,1,.215-.31.6.6,0,0,1,.357-.111,1.034,1.034,0,0,1,.2.015v.5a.612.612,0,0,0-.117-.024,1.138,1.138,0,0,0-.138-.008.554.554,0,0,0-.269.064.477.477,0,0,0-.187.18.5.5,0,0,0-.069.262V15.7H110.1Z" transform="translate(-51.667 -6.259)" fill="#15205f"/>
      <path id="패스_19" data-name="패스 19" d="M113.217,13.375h.521v.394h.026a.636.636,0,0,1,.242-.312.7.7,0,0,1,.4-.113.745.745,0,0,1,.281.051.574.574,0,0,1,.214.145.622.622,0,0,1,.133.228h.024a.642.642,0,0,1,.152-.225.683.683,0,0,1,.241-.148.886.886,0,0,1,.308-.052.773.773,0,0,1,.379.091.616.616,0,0,1,.256.271.949.949,0,0,1,.091.435V15.7h-.547V14.224a.416.416,0,0,0-.11-.314.4.4,0,0,0-.29-.106.426.426,0,0,0-.225.057.376.376,0,0,0-.144.156.528.528,0,0,0-.053.23V15.7h-.533V14.2a.435.435,0,0,0-.048-.209.334.334,0,0,0-.137-.14.428.428,0,0,0-.2-.048.409.409,0,0,0-.218.059.436.436,0,0,0-.156.17.54.54,0,0,0-.058.252V15.7h-.544Z" transform="translate(-53.128 -6.262)" fill="#15205f"/>
      <path id="패스_20" data-name="패스 20" d="M120.436,12.213a.327.327,0,0,1-.115-.107.267.267,0,0,1-.043-.148.276.276,0,0,1,.043-.15.3.3,0,0,1,.115-.107.323.323,0,0,1,.157-.039.33.33,0,0,1,.159.039.3.3,0,0,1,.117.107.272.272,0,0,1,.044.15.264.264,0,0,1-.044.148.329.329,0,0,1-.117.107.325.325,0,0,1-.316,0m-.113.373h.544v2.327h-.544Z" transform="translate(-56.441 -5.473)" fill="#15205f"/>
      <path id="패스_21" data-name="패스 21" d="M122.926,15.7h-.544V13.375h.521v.394h.025a.663.663,0,0,1,.262-.312.794.794,0,0,1,.433-.113.835.835,0,0,1,.421.1.678.678,0,0,1,.277.3,1.058,1.058,0,0,1,.1.473V15.7h-.544V14.3a.611.611,0,0,0-.054-.266.393.393,0,0,0-.157-.171.478.478,0,0,0-.244-.06.521.521,0,0,0-.257.062.428.428,0,0,0-.174.184.617.617,0,0,0-.062.286Z" transform="translate(-57.429 -6.262)" fill="#15205f"/>
      <path id="패스_22" data-name="패스 22" d="M128.369,14.682l-.13.01c-.106,0-.2.01-.289.017a.6.6,0,0,0-.313.1.276.276,0,0,0-.111.234.269.269,0,0,0,.051.167.317.317,0,0,0,.14.1.526.526,0,0,0,.2.033.616.616,0,0,0,.285-.064.478.478,0,0,0,.192-.175.453.453,0,0,0,.067-.241l0-.744a.391.391,0,0,0-.047-.2.292.292,0,0,0-.143-.123.594.594,0,0,0-.232-.04.514.514,0,0,0-.289.074.328.328,0,0,0-.143.2h-.531a.679.679,0,0,1,.145-.357.823.823,0,0,1,.338-.247,1.286,1.286,0,0,1,.5-.089,1.381,1.381,0,0,1,.463.075.734.734,0,0,1,.351.255.771.771,0,0,1,.138.469V15.7h-.523v-.322h-.018a.654.654,0,0,1-.256.266.828.828,0,0,1-.429.1.953.953,0,0,1-.4-.081.638.638,0,0,1-.278-.239.69.69,0,0,1-.1-.382.579.579,0,0,1,.243-.521,1.274,1.274,0,0,1,.625-.186l.228-.014c.084,0,.165-.009.243-.012l.152,0,0,.36-.125.01" transform="translate(-59.595 -6.263)" fill="#15205f"/>
      <rect id="사각형_62" data-name="사각형 62" width="0.544" height="3.103" transform="translate(69.928 6.337)" fill="#15205f"/>
      <path id="패스_23" data-name="패스 23" d="M137.668,12.633a.66.66,0,0,0-.259-.2.842.842,0,0,0-.347-.07.81.81,0,0,0-.451.128.84.84,0,0,0-.306.374,1.646,1.646,0,0,0,0,1.185.841.841,0,0,0,.305.372.8.8,0,0,0,.45.127.856.856,0,0,0,.343-.067.672.672,0,0,0,.26-.2.7.7,0,0,0,.14-.307l.564,0a1.247,1.247,0,0,1-.217.543,1.218,1.218,0,0,1-.455.385,1.419,1.419,0,0,1-.641.141,1.4,1.4,0,0,1-.733-.192,1.31,1.31,0,0,1-.5-.553,2.067,2.067,0,0,1,0-1.7,1.325,1.325,0,0,1,.5-.552,1.4,1.4,0,0,1,.73-.191,1.493,1.493,0,0,1,.625.128,1.148,1.148,0,0,1,.46.375,1.292,1.292,0,0,1,.228.585H137.8a.705.705,0,0,0-.135-.315" transform="translate(-63.648 -5.565)" fill="#15205f"/>
      <path id="패스_24" data-name="패스 24" d="M141.976,15.6a1,1,0,0,1-.39-.421,1.509,1.509,0,0,1,0-1.258,1,1,0,0,1,.39-.422,1.23,1.23,0,0,1,1.178,0,.993.993,0,0,1,.388.422,1.536,1.536,0,0,1,0,1.258.994.994,0,0,1-.388.421,1.234,1.234,0,0,1-1.178,0m.9-.386a.6.6,0,0,0,.188-.274,1.26,1.26,0,0,0,0-.784.606.606,0,0,0-.188-.275.47.47,0,0,0-.3-.1.489.489,0,0,0-.313.1.612.612,0,0,0-.192.275,1.211,1.211,0,0,0,0,.784.6.6,0,0,0,.192.274.494.494,0,0,0,.313.1.475.475,0,0,0,.3-.1" transform="translate(-66.376 -6.262)" fill="#15205f"/>
      <path id="패스_25" data-name="패스 25" d="M146.458,13.375h.521v.394H147a.636.636,0,0,1,.242-.312.7.7,0,0,1,.4-.113.745.745,0,0,1,.281.051.574.574,0,0,1,.214.145.622.622,0,0,1,.133.228h.024a.642.642,0,0,1,.152-.225.683.683,0,0,1,.241-.148.886.886,0,0,1,.308-.052.773.773,0,0,1,.379.091.616.616,0,0,1,.256.271.949.949,0,0,1,.091.435V15.7h-.547V14.224a.416.416,0,0,0-.11-.314.4.4,0,0,0-.29-.106.426.426,0,0,0-.225.057.376.376,0,0,0-.144.156.527.527,0,0,0-.053.23V15.7h-.533V14.2a.435.435,0,0,0-.048-.209.334.334,0,0,0-.137-.14.428.428,0,0,0-.2-.048.409.409,0,0,0-.218.059.436.436,0,0,0-.156.17.54.54,0,0,0-.058.252V15.7h-.544Z" transform="translate(-68.727 -6.262)" fill="#15205f"/>
      <path id="패스_26" data-name="패스 26" d="M153.6,13.375h.533v.384h.034a.2.2,0,0,1,.018-.032.9.9,0,0,1,.134-.186.617.617,0,0,1,.2-.139.762.762,0,0,1,.308-.057.9.9,0,0,1,.493.139.924.924,0,0,1,.343.41,1.756,1.756,0,0,1,0,1.293.938.938,0,0,1-.341.413.876.876,0,0,1-.494.143.757.757,0,0,1-.312-.059.646.646,0,0,1-.21-.142.882.882,0,0,1-.136-.189l-.008-.017h-.023v1.24H153.6Zm.6,1.559a.6.6,0,0,0,.189.265.467.467,0,0,0,.3.1.481.481,0,0,0,.3-.1.591.591,0,0,0,.188-.268,1.132,1.132,0,0,0,.063-.393,1.107,1.107,0,0,0-.063-.387.561.561,0,0,0-.188-.263.542.542,0,0,0-.6,0,.552.552,0,0,0-.188.258,1.237,1.237,0,0,0,0,.793" transform="translate(-72.08 -6.262)" fill="#15205f"/>
      <rect id="사각형_63" data-name="사각형 63" width="0.544" height="3.103" transform="translate(84.149 6.337)" fill="#15205f"/>
      <path id="패스_27" data-name="패스 27" d="M160.9,15.6a.976.976,0,0,1-.392-.416,1.519,1.519,0,0,1,0-1.265,1.016,1.016,0,0,1,.387-.425,1.094,1.094,0,0,1,.578-.15,1.136,1.136,0,0,1,.536.126.924.924,0,0,1,.383.39,1.366,1.366,0,0,1,.142.656v.171h-1.9v-.37h1.382a.622.622,0,0,0-.067-.282.48.48,0,0,0-.186-.2.542.542,0,0,0-.278-.071.548.548,0,0,0-.5.293.624.624,0,0,0-.074.292v.317a.755.755,0,0,0,.075.349.537.537,0,0,0,.209.224.612.612,0,0,0,.314.079.643.643,0,0,0,.209-.032.5.5,0,0,0,.159-.086.39.39,0,0,0,.1-.124h.536a.8.8,0,0,1-.186.352.884.884,0,0,1-.347.232,1.317,1.317,0,0,1-.479.082,1.192,1.192,0,0,1-.6-.146" transform="translate(-75.256 -6.262)" fill="#15205f"/>
      <path id="패스_28" data-name="패스 28" d="M165.944,14.264l.48-.861H167l-.7,1.161.714,1.166h-.572l-.5-.84-.484.84h-.581l.707-1.166L164.9,13.4h.579Z" transform="translate(-77.371 -6.289)" fill="#15205f"/>
      <path id="패스_29" data-name="패스 29" d="M22.165,17.787a4.409,4.409,0,1,1,.166,8.813,4.41,4.41,0,1,1-.166-8.813m-.951,5.872a1.385,1.385,0,0,0,1.178.4,1.813,1.813,0,0,0,1.613-1.932A1.582,1.582,0,0,0,22.257,20.5a1.679,1.679,0,0,0-1.745,1.746,2.169,2.169,0,0,0,.7,1.41" transform="translate(-8.306 -8.346)" fill="#15205f"/>
      <path id="패스_30" data-name="패스 30" d="M37.7,23.031c-1.163-.059-2.274-.284-2.391-1.615-.126-1.431,1.043-1.607,2.152-1.724,1.885-.2,3.764-.454,5.65-.639.951-.093,2.061-.205,2.307,1.054.253,1.308-.776,1.754-1.8,1.95-1.963.376-3.944.655-5.918.974" transform="translate(-16.563 -8.916)" fill="#15205f"/>
      <path id="패스_31" data-name="패스 31" d="M28.57,3.674c-.088.841-.188,2.105-.362,3.359C28.057,8.116,27.6,9.07,26.3,8.86c-1.157-.187-1.411-1.121-1.322-2.182.12-1.42.2-2.844.334-4.261C25.422,1.3,25.488-.026,27,0s1.564,1.3,1.572,2.456c0,.264,0,.529,0,1.218" transform="translate(-11.714 0)" fill="#15205f"/>
      <path id="패스_32" data-name="패스 32" d="M.775,19.331a1.844,1.844,0,0,1,1.25-.212c2.108.4,3.909.692,5.665,1.155.491.129,1.185.973,1.118,1.379-.09.549-.886,1.457-1.272,1.406A56.307,56.307,0,0,1,.63,21.675c-.348-.092-.766-1.244-.587-1.664a1.627,1.627,0,0,1,.732-.68" transform="translate(0 -8.957)" fill="#15205f"/>
      <path id="패스_33" data-name="패스 33" d="M23.07,42.272a.674.674,0,0,1-.1-.47,32.917,32.917,0,0,1,.726-4.388c.116-.392.548-.692.977-.991a.669.669,0,0,1,.923.152,2.456,2.456,0,0,1,.633,1.28,27.267,27.267,0,0,1-.521,4.053c-.139.922-.569,1.769-1.6,1.47-.46-.134-.786-.728-1.038-1.106" transform="translate(-10.775 -17.035)" fill="#fb9e2b"/>
      <path id="패스_34" data-name="패스 34" d="M36.7,28.228a1.147,1.147,0,0,1,1.109-.1c1.69.747,3.26,1.408,4.761,2.2a1.539,1.539,0,0,1,.389,1.466,1.57,1.57,0,0,1-1.391.65,39.754,39.754,0,0,1-4.98-2.068,1.637,1.637,0,0,1-.576-1.443c.058-.268.36-.483.689-.706" transform="translate(-16.89 -13.154)" fill="#fb9e2b"/>
      <path id="패스_35" data-name="패스 35" d="M39.174,9.966a.986.986,0,0,1-.067.584,1.827,1.827,0,0,1-.408.663,18.362,18.362,0,0,1-3.068,2.465,1.66,1.66,0,0,1-1.127,0,1.053,1.053,0,0,1-.81-1.189,1.745,1.745,0,0,1,.361-.936,17.39,17.39,0,0,1,3.072-2.479,1.3,1.3,0,0,1,2.047.892" transform="translate(-15.805 -4.142)" fill="#fb9e2b"/>
      <path id="패스_36" data-name="패스 36" d="M7.11,32.694a1.046,1.046,0,0,1-.926-.179c-.341-.263-.7-.539-.735-.851a1.965,1.965,0,0,1,.714-1.657A10.887,10.887,0,0,1,9.63,29a1.871,1.871,0,0,1,1.514.989,1.8,1.8,0,0,1-.7,1.624A21,21,0,0,1,7.11,32.694" transform="translate(-2.554 -13.606)" fill="#fb9e2b"/>
      <path id="패스_37" data-name="패스 37" d="M14.794,8.224A1.212,1.212,0,0,1,14.8,7.013c.215-.369.4-.677.612-.7a2,2,0,0,1,1.63.492,18.521,18.521,0,0,1,1.909,3.618,1.552,1.552,0,0,1-.536,1.414,1.576,1.576,0,0,1-1.521-.15c-.77-1.081-1.411-2.254-2.1-3.459" transform="translate(-6.867 -2.954)" fill="#fb9e2b"/>
      <path id="패스_38" data-name="패스 38" d="M10.455,14.686a.907.907,0,0,1-.024-1.463c.3-.229,1.051.052,1.115.1A16.166,16.166,0,0,1,13.2,14.738a.759.759,0,0,1,.046,1.066c-.223.245-.421.447-.483.412-.75-.43-1.462-.928-2.313-1.53" transform="translate(-4.727 -6.164)" fill="#fb9e2b"/>
      <path id="패스_39" data-name="패스 39" d="M9.891,35.145A25.562,25.562,0,0,1,6.6,38.753c-.063.054-.127.106-.191.159-.084.068-.213.255-.021.019a2.211,2.211,0,0,1-.456.325,9.459,9.459,0,0,1-.961.57,4.531,4.531,0,0,1-.5.238c.116-.042.21-.082.037-.021-.1.034-.193.07-.291.1a7.166,7.166,0,0,1-1.138.275,1.6,1.6,0,0,0-1.111,1.956,1.638,1.638,0,0,0,1.956,1.111c3.572-.572,6.08-3.425,8.222-6.095a1.629,1.629,0,0,0,0-2.249,1.608,1.608,0,0,0-2.249,0" transform="translate(-0.893 -16.276)" fill="#15205f"/>
      <path id="패스_40" data-name="패스 40" d="M32.245,37.39a19.264,19.264,0,0,0,3.135,3.366,10.1,10.1,0,0,0,4.72,1.872,1.739,1.739,0,0,0,1.225-.16,1.591,1.591,0,0,0-.38-2.907,12.192,12.192,0,0,1-2.154-.507c-.093-.032-.185-.068-.278-.1-.284-.1.174.088,0,0-.159-.078-.32-.15-.475-.235s-.308-.175-.456-.272c-.083-.054-.163-.113-.245-.168-.244-.168.129.123-.008-.01-.5-.486-1.025-.935-1.487-1.466s-.9-1.106-1.348-1.662a1.594,1.594,0,0,0-2.249,0,1.636,1.636,0,0,0,0,2.249" transform="translate(-14.921 -16.272)" fill="#15205f"/>
    </g>
  </g>
</svg>
