<svg width="336" height="308" viewBox="0 0 336 308" fill="none" xmlns="http://www.w3.org/2000/svg">
<path d="M0.5 97.2H8.15V115.56L23.79 131.2H78.53L2.2 41.27V17.81L18.01 2H84.82L96.72 13.9V0.299989H104.37V42.8H96.72V24.44L81.08 8.79999H31.44L107.77 98.73V122.19L91.96 138H20.05L8.15 126.1V139.7H0.5V97.2ZM217.156 138H107.846V131.2H121.446V8.79999H107.846V2H217.156V41.1H209.506V8.79999H160.546V64.9H204.406V71.7H160.546V131.2H209.506V98.9H217.156V138ZM241.407 138L223.897 120.49V19.51L241.407 2H317.737L335.247 19.51V120.49L317.737 138H241.407ZM262.997 8.79999V131.2H296.147V8.79999H262.997ZM9 308V277.4H41.3V308H9ZM9 243.4V212.8H41.3V243.4H9ZM234.223 301.2V308H196.483L182.373 293.89V212.8H170.473L158.573 224.7V301.2H168.773V308H119.473V212.8H107.573L95.6734 224.7V301.2H105.873V308H42.9734V301.2H56.5734V212.8H42.9734V206H79.8634L91.9334 217.9L103.833 206H142.763L154.833 217.9L166.733 206H204.813L220.623 221.81V301.2H234.223ZM251.66 308L235.85 292.19V221.81L251.66 206H316.94L332.75 221.81V249.69L316.94 265.5H274.95V301.2H314.05L328.33 286.92L333.6 292.19L317.79 308H251.66ZM274.95 212.8V258.7H293.65V212.8H274.95Z" fill="black" fill-opacity="0.5"/>
</svg>
