<svg width="256" height="256" viewBox="0 0 256 256" fill="none" xmlns="http://www.w3.org/2000/svg">
<path d="M127.967 0C57.3054 0 0 57.2867 0 127.986C0 162.551 13.7137 193.866 35.9639 216.918C36.432 217.359 36.9002 217.772 37.3683 218.185C63.997 242.284 87.0734 238.621 99.2174 230.276C101.531 228.679 103.458 226.916 104.918 225.153C107.809 221.656 123.203 196.675 94.1505 179.654C91.7272 178.222 89.6895 176.157 87.6517 174.119C78.0687 164.507 73.2496 152.553 73.2496 138.259C73.2496 123.139 78.3716 110.773 88.5604 101.188C98.7768 91.5761 111.857 86.7839 127.774 86.7839C143.69 86.7839 156.275 92.182 166.684 103.033C177.093 113.857 183.069 127.022 183.069 142.556C183.069 153.159 181.637 163.157 179.241 172.576C178.03 177.313 176.598 181.94 174.973 186.375C170.071 199.65 163.435 211.3 155.063 221.297C147.243 230.662 138.128 238.483 127.801 244.818C127.085 245.259 126.397 245.699 125.653 246.14C119.32 249.831 111.196 252.227 102.99 253.246C102.577 253.301 102.054 253.356 101.971 253.356C110.37 255.091 119.072 256 127.967 256C198.628 256 255.933 198.713 255.933 128.014C255.933 57.3142 198.655 0.0275686 127.967 0.0275686V0Z" fill="#4D6780"/>
</svg>
