<svg width="240" height="52" viewBox="0 0 240 52" fill="none" xmlns="http://www.w3.org/2000/svg">
<path d="M189.004 24.111C189.004 25.1995 188.782 26.2236 188.338 27.1832C187.894 28.1429 187.264 28.9772 186.447 29.6862C185.638 30.388 184.707 30.9143 183.654 31.2653L182.838 29.9762C183.769 29.6611 184.596 29.2063 185.319 28.6119C186.043 28.0175 186.608 27.3336 187.017 26.5602C187.425 25.7796 187.629 24.9632 187.629 24.111V23.2731H189.004V24.111ZM189.283 24.111C189.283 24.8916 189.494 25.6399 189.917 26.3561C190.34 27.0651 190.92 27.6917 191.657 28.236C192.395 28.7802 193.229 29.1884 194.16 29.4606L193.344 30.7711C192.284 30.4489 191.342 29.9655 190.519 29.3209C189.695 28.6692 189.054 27.8958 188.596 27.0006C188.137 26.0983 187.908 25.1351 187.908 24.111V23.2731H189.283V24.111ZM193.602 23.7028H183.311V22.3492H193.602V23.7028ZM189.326 22.8219H187.629V19.9215H189.326V22.8219ZM197.404 26.8824H193V25.486H197.404V26.8824ZM198.607 31.5875H196.91V20.0074H198.607V31.5875ZM192.27 32.1031C193.587 32.1031 194.726 32.2356 195.686 32.5006C196.645 32.7656 197.383 33.163 197.898 33.693C198.414 34.2229 198.672 34.8531 198.672 35.5836C198.672 36.3141 198.414 36.9407 197.898 37.4635C197.383 37.9863 196.645 38.3837 195.686 38.6559C194.726 38.928 193.587 39.0641 192.27 39.0641C190.945 39.0641 189.802 38.928 188.843 38.6559C187.89 38.3837 187.156 37.9863 186.641 37.4635C186.125 36.9407 185.867 36.3141 185.867 35.5836C185.867 34.8531 186.125 34.2229 186.641 33.693C187.156 33.163 187.89 32.7656 188.843 32.5006C189.802 32.2356 190.945 32.1031 192.27 32.1031ZM192.27 33.4137C191.296 33.4209 190.454 33.5104 189.745 33.6823C189.036 33.847 188.492 34.094 188.112 34.4235C187.733 34.7457 187.543 35.1324 187.543 35.5836C187.543 36.0276 187.733 36.4108 188.112 36.733C188.492 37.0553 189.036 37.3024 189.745 37.4742C190.454 37.6461 191.296 37.7321 192.27 37.7321C193.236 37.7321 194.074 37.6461 194.783 37.4742C195.499 37.3024 196.047 37.0553 196.427 36.733C196.806 36.4108 196.996 36.0276 196.996 35.5836C196.996 35.1324 196.806 34.7457 196.427 34.4235C196.047 34.094 195.503 33.847 194.794 33.6823C194.085 33.5104 193.243 33.4209 192.27 33.4137ZM207.953 23.5524C207.953 24.777 207.735 25.9156 207.298 26.9684C206.861 28.014 206.242 28.927 205.439 29.7076C204.637 30.4811 203.706 31.0719 202.646 31.4801L201.723 30.1266C202.682 29.79 203.527 29.2923 204.258 28.6334C204.988 27.9674 205.554 27.2011 205.955 26.3346C206.356 25.4609 206.557 24.5335 206.557 23.5524V21.1891H207.953V23.5524ZM208.211 23.6168C208.211 24.4834 208.415 25.3177 208.823 26.1198C209.231 26.9147 209.797 27.6237 210.521 28.2467C211.244 28.8626 212.071 29.3317 213.002 29.6539L212.143 31.0074C211.097 30.6279 210.177 30.0693 209.382 29.3317C208.587 28.5869 207.967 27.7239 207.523 26.7428C207.079 25.7617 206.857 24.7197 206.857 23.6168V21.1891H208.211V23.6168ZM216.719 34.1227H215.043V20.0074H216.719V34.1227ZM219.598 27.3121H216.182V25.8727H219.598V27.3121ZM217.6 38.6989H204.795V37.2809H217.6V38.6989ZM206.514 37.9684H204.795V32.7692H206.514V37.9684ZM236.227 30.3414H223.035V28.9664H236.227V30.3414ZM238.289 36.7008H220.801V35.2828H238.289V36.7008ZM230.318 35.8629H228.664V29.568H230.318V35.8629ZM236.033 22.9508H224.732V29.611H223.035V21.5758H236.033V22.9508Z" fill="white"/>
<path d="M170 22.3668V36.3668" stroke="white" stroke-opacity="0.5" stroke-width="1.5"/>
<path d="M25.487 0C11.41 0 -0.00634766 11.4259 -0.00634766 25.5269C-0.00634766 32.4209 2.72567 38.6667 7.15834 43.2645C7.2516 43.3524 7.34486 43.4348 7.43812 43.5172C12.7431 48.3237 17.3403 47.5931 19.7596 45.9287C20.2204 45.6101 20.6045 45.2585 20.8952 44.9069C21.4712 44.2093 24.5379 39.227 18.7502 35.8322C18.2674 35.5465 17.8615 35.1345 17.4555 34.728C15.5464 32.8109 14.5863 30.4268 14.5863 27.5759C14.5863 24.5601 15.6067 22.0937 17.6366 20.182C19.6719 18.2649 22.2777 17.3091 25.4486 17.3091C28.6195 17.3091 31.1266 18.3858 33.2003 20.5501C35.274 22.7089 36.4644 25.3347 36.4644 28.4328C36.4644 30.5477 36.1791 32.5417 35.7019 34.4204C35.4605 35.3652 35.1752 36.2881 34.8515 37.1725C33.875 39.8202 32.5529 42.1439 30.8852 44.1379C29.3272 46.0056 27.5113 47.5656 25.4541 48.8291C25.3114 48.917 25.1743 49.0049 25.0262 49.0928C23.7644 49.8288 22.146 50.3068 20.5112 50.51C20.4289 50.521 20.3247 50.532 20.3082 50.532C21.9814 50.878 23.715 51.0593 25.487 51.0593C39.564 51.0593 50.9803 39.6335 50.9803 25.5324C50.9803 11.4314 39.5695 0.00549857 25.487 0.00549857V0Z" fill="white"/>
<path d="M138.767 33.7888V28.8559H127.581C126.462 28.8559 125.551 27.922 125.551 26.774C125.551 25.6259 126.462 24.692 127.581 24.692H146.475C147.073 21.6488 147.506 17.2323 147.506 14.7109H130.269C129.15 14.7109 128.239 13.777 128.239 12.629C128.239 11.4809 129.15 10.547 130.269 10.547H150.797C151.9 10.547 152.789 11.4644 152.789 12.5905V14.2659C152.789 17.1059 152.432 21.3632 151.834 24.6865H152.97C154.089 24.6865 155 25.6204 155 26.7685C155 27.9165 154.089 28.8504 152.97 28.8504H144.088V33.7833C144.088 34.9314 143.177 35.8652 142.058 35.8652H140.797C139.677 35.8652 138.767 34.9314 138.767 33.7833V33.7888ZM152.871 42.3307V42.3692C152.871 43.5172 151.961 44.4511 150.841 44.4511H130.51C129.408 44.4511 128.519 43.5337 128.519 42.4076V33.9261C128.519 32.778 129.43 31.8442 130.549 31.8442H131.772C132.891 31.8442 133.802 32.778 133.802 33.9261V40.2488H150.841C151.961 40.2488 152.871 41.1826 152.871 42.3307Z" fill="white"/>
<path d="M69.062 33.9426H67.7892C66.6756 33.9426 65.7759 34.8764 65.7759 36.03V42.3362C65.7759 43.5612 66.7359 44.5554 67.9154 44.5554H86.6939C87.8076 44.5554 88.7073 43.6216 88.7073 42.468V42.4296C88.7073 41.276 87.8076 40.3421 86.6939 40.3421H71.0698V36.03C71.0698 34.8764 70.1701 33.9426 69.0565 33.9426H69.062Z" fill="white"/>
<path d="M86.6994 8.99242H85.4267C84.313 8.99242 83.4133 9.92626 83.4133 11.0798V33.2339C83.4133 34.3875 84.313 35.3213 85.4267 35.3213H86.6994C87.8131 35.3213 88.7128 34.3875 88.7128 33.2339V23.5769H91.6752C92.7889 23.5769 93.6886 22.643 93.6886 21.4895V21.1654C93.6886 20.0118 92.7889 19.0779 91.6752 19.0779H88.7128V11.0798C88.7128 9.92626 87.8131 8.99242 86.6994 8.99242Z" fill="white"/>
<path d="M68.1292 24.8293V27.6638H61.7819C60.6683 27.6638 59.7686 28.5976 59.7686 29.7512C59.7686 30.9048 60.6683 31.8386 61.7819 31.8386H65.5837C70.3236 31.8386 76.6544 31.553 83.6764 30.8279L83.4789 26.7354C79.1999 27.098 76.2539 27.3452 73.467 27.466V24.8348H68.1292V24.8293Z" fill="white"/>
<path d="M111.167 38.4524V30.8773H118.99C120.103 30.8773 121.003 29.9435 121.003 28.7899V28.6251C121.003 27.4715 120.103 26.5377 118.99 26.5377H101.89V15.6282H118.392C119.505 15.6282 120.405 14.6943 120.405 13.5408V13.376C120.405 12.2224 119.505 11.2886 118.392 11.2886H98.7355C97.556 11.2886 96.596 12.2828 96.596 13.5078V28.6471C96.596 29.8721 97.556 30.8663 98.7355 30.8663H105.834V38.4415H94.5497C93.4361 38.4415 92.5364 39.3753 92.5364 40.5289V40.7321C92.5364 41.8857 93.4361 42.8195 94.5497 42.8195H122.457C123.571 42.8195 124.47 41.8857 124.47 40.7321V40.5289C124.47 39.3753 123.571 38.4415 122.457 38.4415H111.172L111.167 38.4524Z" fill="white"/>
<path d="M70.7679 26.4773C65.9787 26.4773 62.0781 22.5772 62.0781 17.7761C62.0781 12.975 65.9732 9.07486 70.7679 9.07486C75.5627 9.07486 79.4577 12.975 79.4577 17.7761C79.4577 22.5772 75.5627 26.4773 70.7679 26.4773ZM70.7679 13.7496C68.5461 13.7496 66.7412 15.5568 66.7412 17.7816C66.7412 20.0063 68.5461 21.8136 70.7679 21.8136C72.9897 21.8136 74.7946 20.0063 74.7946 17.7816C74.7946 15.5568 72.9897 13.7496 70.7679 13.7496Z" fill="white"/>
</svg>
