<svg width="26" height="26" viewBox="0 0 26 26" fill="none" xmlns="http://www.w3.org/2000/svg">
<path d="M13.0003 23.8333C11.4958 23.8333 10.0844 23.5489 8.76639 22.9802C7.44833 22.4114 6.30027 21.638 5.3222 20.6599C4.34413 19.6821 3.57379 18.531 3.01118 17.2068C2.44839 15.8828 2.16699 14.4685 2.16699 12.9639C2.16699 11.4532 2.44839 10.0434 3.01118 8.73434C3.57379 7.42531 4.34413 6.28176 5.3222 5.30369C6.30027 4.3258 7.44833 3.55844 8.76639 3.00161C10.0844 2.44495 11.4958 2.16663 13.0003 2.16663C14.511 2.16663 15.9239 2.44495 17.2389 3.00161C18.5539 3.55844 19.7004 4.3258 20.6785 5.30369C21.6565 6.28176 22.4269 7.42531 22.9895 8.73434C23.5523 10.0434 23.8337 11.4532 23.8337 12.9639C23.8337 14.4685 23.5523 15.8828 22.9895 17.2068C22.4269 18.531 21.6565 19.6821 20.6785 20.6599C19.7004 21.638 18.5539 22.4114 17.2389 22.9802C15.9239 23.5489 14.511 23.8333 13.0003 23.8333ZM13.0003 22.0458C13.5781 21.3958 14.0656 20.6736 14.4628 19.8791C14.86 19.0847 15.1851 18.1699 15.4378 17.1348H10.581C10.8217 18.1217 11.1406 19.0214 11.5378 19.8339C11.935 20.6464 12.4225 21.3837 13.0003 22.0458ZM10.5268 21.6848C10.1175 21.0286 9.76387 20.329 9.46595 19.5858C9.16804 18.8425 8.91977 18.0255 8.72116 17.1348H4.94764C5.57958 18.2903 6.32735 19.2232 7.19095 19.9333C8.05455 20.6434 9.1665 21.2272 10.5268 21.6848ZM15.492 21.6666C16.6958 21.2815 17.7746 20.7007 18.7285 19.9244C19.6823 19.148 20.4572 18.2181 21.053 17.1348H17.2976C17.0869 18.0134 16.8356 18.8243 16.5436 19.5677C16.2519 20.311 15.9013 21.0107 15.492 21.6666ZM4.27949 15.3291H8.37801C8.32385 14.8837 8.28927 14.4729 8.27428 14.0968C8.2593 13.7207 8.25181 13.3431 8.25181 12.9639C8.25181 12.5366 8.26228 12.1468 8.28322 11.7948C8.30435 11.4427 8.34199 11.062 8.39616 10.6526H4.27949C4.1652 11.062 4.08549 11.4397 4.04035 11.7858C3.99521 12.1318 3.97264 12.5245 3.97264 12.9639C3.97264 13.4032 3.99521 13.805 4.04035 14.1691C4.08549 14.5331 4.1652 14.9198 4.27949 15.3291ZM10.2197 15.3291H15.7988C15.8651 14.8357 15.9088 14.4129 15.9299 14.0608C15.9509 13.7087 15.9613 13.3431 15.9613 12.9639C15.9613 12.5967 15.9509 12.2431 15.9299 11.9031C15.9088 11.5631 15.8651 11.1463 15.7988 10.6526H10.2197C10.1536 11.1463 10.11 11.5631 10.0889 11.9031C10.0677 12.2431 10.0572 12.5967 10.0572 12.9639C10.0572 13.3431 10.0677 13.7087 10.0889 14.0608C10.11 14.4129 10.1536 14.8357 10.2197 15.3291ZM17.6045 15.3291H21.7212C21.8355 14.9198 21.9152 14.5331 21.9603 14.1691C22.0054 13.805 22.028 13.4032 22.028 12.9639C22.028 12.5245 22.0054 12.1318 21.9603 11.7858C21.9152 11.4397 21.8355 11.062 21.7212 10.6526H17.6226C17.6768 11.1943 17.7144 11.6352 17.7353 11.9754C17.7564 12.3154 17.767 12.6449 17.767 12.9639C17.767 13.355 17.7535 13.7266 17.7264 14.0787C17.6993 14.4308 17.6587 14.8476 17.6045 15.3291ZM17.2795 8.84727H21.053C20.4814 7.71573 19.7185 6.76177 18.7645 5.98538C17.8106 5.20899 16.7137 4.65224 15.4738 4.31515C15.8832 4.95919 16.2338 5.64683 16.5258 6.37809C16.8175 7.10933 17.0688 7.9324 17.2795 8.84727ZM10.581 8.84727H15.456C15.2512 7.94449 14.9353 7.07783 14.5081 6.24727C14.0807 5.41672 13.5781 4.66434 13.0003 3.99015C12.4587 4.53181 11.9982 5.18488 11.6191 5.94936C11.2399 6.71365 10.8939 7.67962 10.581 8.84727ZM4.94764 8.84727H8.73931C8.92582 7.96851 9.16199 7.16648 9.44781 6.44119C9.73381 5.71608 10.0874 5.01345 10.5087 4.33329C9.26878 4.67039 8.18094 5.22108 7.24512 5.98538C6.3093 6.74967 5.54347 7.70363 4.94764 8.84727Z" fill="white"/>
</svg>
