<svg width="26" height="26" viewBox="0 0 26 26" fill="none" xmlns="http://www.w3.org/2000/svg">
<path d="M6.12116 18.9041C7.18644 18.1398 8.28178 17.5485 9.40718 17.1302C10.5328 16.7118 11.7305 16.5026 13.0003 16.5026C14.2702 16.5026 15.4709 16.7118 16.6024 17.1302C17.734 17.5485 18.8324 18.1398 19.8976 18.9041C20.6379 18.0073 21.178 17.0714 21.518 16.0964C21.858 15.1214 22.028 14.0893 22.028 13C22.028 10.4541 21.1599 8.31301 19.4237 6.57661C17.6873 4.84038 15.5462 3.97227 13.0003 3.97227C10.4545 3.97227 8.31337 4.84038 6.57697 6.57661C4.84075 8.31301 3.97264 10.4541 3.97264 13C3.97264 14.0893 4.14561 15.1214 4.49155 16.0964C4.83768 17.0714 5.38088 18.0073 6.12116 18.9041ZM12.9971 13.9026C11.9461 13.9026 11.0609 13.542 10.3416 12.8207C9.6224 12.0992 9.26283 11.2129 9.26283 10.1619C9.26283 9.11088 9.62358 8.2258 10.3451 7.50665C11.0664 6.78731 11.9526 6.42765 13.0036 6.42765C14.0546 6.42765 14.9398 6.7884 15.6591 7.5099C16.3783 8.2314 16.7378 9.11765 16.7378 10.1687C16.7378 11.2197 16.3771 12.1048 15.6556 12.8239C14.9343 13.5431 14.0481 13.9026 12.9971 13.9026ZM13.0087 23.8333C11.5166 23.8333 10.1115 23.5489 8.79347 22.9802C7.47542 22.4114 6.32582 21.6366 5.34468 20.6556C4.36372 19.6745 3.58887 18.5263 3.02012 17.2111C2.45137 15.896 2.16699 14.4906 2.16699 12.9951C2.16699 11.4997 2.45137 10.096 3.02012 8.7839C3.58887 7.47198 4.36372 6.32545 5.34468 5.34431C6.32582 4.36336 7.47397 3.5885 8.78914 3.01975C10.1043 2.451 11.5097 2.16663 13.0052 2.16663C14.5006 2.16663 15.9043 2.451 17.2164 3.01975C18.5283 3.5885 19.6748 4.36336 20.656 5.34431C21.6369 6.32545 22.4118 7.47216 22.9805 8.78444C23.5493 10.0969 23.8337 11.4993 23.8337 12.9916C23.8337 14.4837 23.5493 15.8888 22.9805 17.2068C22.4118 18.5249 21.6369 19.6745 20.656 20.6556C19.6748 21.6366 18.5281 22.4114 17.2158 22.9802C15.9034 23.5489 14.501 23.8333 13.0087 23.8333ZM13.0003 22.0276C13.9813 22.0276 14.9292 21.8847 15.8441 21.5989C16.759 21.3131 17.6407 20.8421 18.4893 20.186C17.6407 19.5782 16.756 19.1133 15.8351 18.7912C14.9143 18.4693 13.9694 18.3083 13.0003 18.3083C12.0313 18.3083 11.0863 18.4693 10.1655 18.7912C9.24468 19.1133 8.35996 19.5782 7.51135 20.186C8.35996 20.8421 9.2417 21.3131 10.1566 21.5989C11.0715 21.8847 12.0194 22.0276 13.0003 22.0276ZM13.0003 12.0973C13.566 12.0973 14.0294 11.9167 14.3905 11.5556C14.7516 11.1945 14.9322 10.731 14.9322 10.1651C14.9322 9.59947 14.7516 9.13607 14.3905 8.77496C14.0294 8.41385 13.566 8.23329 13.0003 8.23329C12.4346 8.23329 11.9713 8.41385 11.6101 8.77496C11.249 9.13607 11.0685 9.59947 11.0685 10.1651C11.0685 10.731 11.249 11.1945 11.6101 11.5556C11.9713 11.9167 12.4346 12.0973 13.0003 12.0973Z" fill="white"/>
</svg>
