<svg width="225" height="56" viewBox="0 0 225 56" fill="none" xmlns="http://www.w3.org/2000/svg">
<g clip-path="url(#clip0_5_138)">
<path d="M184.889 16.0142C184.889 16.5797 184.968 17.1552 185.195 17.691C186.182 20.1318 188.66 21.6301 191.819 20.36C192.579 20.0524 213.509 11.579 213.509 11.579C213.509 11.579 205.265 32.584 204.959 33.3678C203.755 36.3742 205.196 39.1028 207.654 40.0255C208.197 40.224 208.76 40.3232 209.323 40.3133C211.317 40.3033 213.084 39.1127 213.943 36.7512C214.081 36.3941 224.388 7.94756 224.615 7.25301C224.743 6.85613 224.99 5.90361 224.99 5.23884C224.99 3.82991 224.467 2.50035 223.47 1.49823C222.482 0.506024 221.189 0 219.797 0C219.136 0 218.583 0.119064 217.754 0.38696C217.26 0.545712 190.684 10.4876 188.413 11.3409C186.133 12.1942 184.889 14.0099 184.889 16.0142Z" fill="#BC0120"/>
<path d="M184.889 16.0142C184.889 16.5797 184.968 17.1552 185.195 17.691C186.182 20.1318 188.66 21.6301 191.819 20.36C192.579 20.0524 213.509 11.579 213.509 11.579C213.509 11.579 205.265 32.584 204.959 33.3678C203.755 36.3742 205.196 39.1028 207.654 40.0255C208.197 40.224 208.76 40.3232 209.323 40.3133C211.317 40.3033 213.084 39.1127 213.943 36.7512C214.081 36.3941 224.388 7.94756 224.615 7.25301C224.743 6.85613 224.99 5.90361 224.99 5.23884C224.99 3.82991 224.467 2.50035 223.47 1.49823C222.482 0.506024 221.189 0 219.797 0C219.136 0 218.583 0.119064 217.754 0.38696C217.26 0.545712 190.684 10.4876 188.413 11.3409C186.133 12.1942 184.889 14.0099 184.889 16.0142Z" fill="#BC0120"/>
<path d="M131.746 55.5039V30.2523H147.571V34.3997H136.584V40.3331H146.584V44.4805H136.584V51.3565H147.966V55.5039H131.746Z" fill="white"/>
<path d="M165.618 55.5039L164.542 53.8569C164.187 54.1049 163.9 54.3827 163.545 54.6407C162.113 55.6131 160.376 55.9206 158.668 55.9206C154.364 55.9206 150.405 53.3211 150.405 48.6279C150.405 45.0461 152.616 43.5082 154.926 41.2658C153.643 39.589 152.399 38.2296 152.399 35.9674C152.399 32.4947 155.39 30.6393 158.559 30.6393C161.728 30.6393 164.354 32.6435 164.354 36.0071C164.354 38.8349 162.607 40.4423 160.652 42.1191L164.808 47.7647C165.598 46.2268 165.598 44.55 165.49 42.8632L169.113 42.9029C169.152 43.4685 169.182 44.044 169.182 44.6194C169.182 47.0603 168.619 49.2332 167.158 51.168L170.357 55.494H165.598L165.618 55.5039ZM157.463 44.6691C156.259 45.8895 154.62 46.9511 154.62 48.8859C154.62 51.2077 156.674 52.18 158.747 52.18C159.991 52.18 161.343 51.8526 162.232 50.9299L157.463 44.6691ZM158.609 34.0822C157.503 34.0822 156.575 34.7966 156.575 35.9773C156.575 37.2672 157.503 38.4082 158.293 39.3806C159.319 38.5174 160.563 37.3367 160.563 35.8781C160.563 34.7272 159.675 34.0822 158.609 34.0822Z" fill="white"/>
<path d="M189.717 52.7853C188.088 55.0376 185.412 56.0001 182.707 56.0001C179.43 56.0001 176.438 54.7896 174.316 52.2396C172.075 49.5904 171.394 46.3856 171.394 43.022C171.394 41.2658 171.542 39.5096 172.045 37.8328C173.427 32.9313 177.386 29.7463 182.5 29.7463C187.94 29.7463 191.039 33.1099 191.326 38.438H187.16C186.735 35.8286 185.274 33.9334 182.46 33.9334C177.662 33.9334 176.419 39.1822 176.419 43.0518C176.419 46.9214 177.909 51.7733 182.569 51.7733C185.876 51.7733 187.16 49.0546 187.298 46.1276H191.642C191.543 48.5585 191.188 50.7711 189.726 52.7754" fill="white"/>
<path d="M14.1174 55.494L4.86705 42.1191L14.0779 30.2424H19.6262L10.2277 41.9405L20.258 55.4841H14.1075L14.1174 55.494ZM0 30.2524H4.83744V55.494H0V30.2524Z" fill="white"/>
<path d="M40.9405 50.1262C39.6275 54.3431 35.6095 56.0001 31.4729 56.0001C27.3364 56.0001 23.5751 54.4324 22.1535 50.3842C21.6204 48.8761 21.5513 47.2389 21.5513 45.6613V30.2425H26.3986V44.7187C26.3986 46.2566 26.3196 48.2311 27.1094 49.6202C27.988 51.2375 29.8144 51.7634 31.5223 51.7634C33.1118 51.7634 34.9381 51.2276 35.8168 49.7591C36.646 48.37 36.5967 46.5543 36.5967 44.9668V30.2325H41.444V45.9987C41.444 47.3977 41.3749 48.7868 40.9405 50.1163" fill="white"/>
<path d="M65.4436 55.494V35.7987L60.073 55.494H55.0974L49.796 35.7987V55.494H45.4521V30.2523H52.1752L57.6148 50.3147L63.1335 30.2523H69.7874V55.494H65.4436Z" fill="white"/>
<path d="M88.7029 55.494V44.3416H78.7417V55.494H73.9043V30.2523H78.7417V40.3331H88.7029V30.2523H93.5403V55.494H88.7029Z" fill="white"/>
<path d="M108.082 33.9037C103.215 33.9037 101.784 38.8349 101.784 42.8831C101.784 46.9313 103.205 51.8526 108.112 51.8526C113.018 51.8526 114.45 46.9214 114.45 42.8831C114.45 38.8449 112.959 33.9037 108.082 33.9037ZM113.778 54.5018C112.071 55.5436 110.037 56.0001 108.082 56.0001C106.443 56.0001 104.558 55.5833 103.077 54.8193C98.4369 52.4281 96.7783 47.8441 96.7783 42.8732C96.7783 37.9023 98.2987 33.606 102.692 31.1057C104.321 30.173 106.246 29.7463 108.122 29.7463C111.083 29.7463 113.966 30.8278 116.019 32.971C118.557 35.5805 119.475 39.341 119.475 42.8831C119.475 47.5961 117.984 51.9519 113.788 54.5018" fill="white"/>
</g>
<defs>
<clipPath id="clip0_5_138">
<rect width="225" height="56" fill="white"/>
</clipPath>
</defs>
</svg>
