<svg width="120" height="30" viewBox="0 0 120 30" fill="none" xmlns="http://www.w3.org/2000/svg">
<g clip-path="url(#clip0_13_184)">
<path d="M98.6074 8.48131C98.6074 8.78084 98.6495 9.08562 98.7706 9.36938C99.2972 10.6621 100.619 11.4556 102.304 10.7829C102.709 10.62 113.871 6.1324 113.871 6.1324C113.871 6.1324 109.475 17.2569 109.312 17.672C108.669 19.2642 109.438 20.7093 110.749 21.198C111.039 21.3031 111.339 21.3557 111.639 21.3504C112.702 21.3452 113.645 20.7146 114.103 19.4639C114.177 19.2748 119.674 4.20913 119.795 3.84129C119.863 3.63109 119.995 3.12663 119.995 2.77456C119.995 2.02837 119.716 1.32422 119.184 0.793481C118.657 0.267997 117.968 0 117.225 0C116.873 0 116.578 0.0630581 116.135 0.204939C115.872 0.289016 101.698 5.55437 100.487 6.00628C99.2708 6.4582 98.6074 7.41983 98.6074 8.48131Z" fill="#BC0120"/>
<path d="M70.2646 29.3955V16.022H78.7048V18.2185H72.8446V21.3609H78.1783V23.5574H72.8446V27.199H78.9154V29.3955H70.2646Z" fill="#454B52"/>
<path d="M88.3295 29.3954L87.7556 28.5231C87.5661 28.6545 87.4134 28.8016 87.2238 28.9383C86.4604 29.4532 85.5337 29.6161 84.6228 29.6161C82.3272 29.6161 80.2158 28.2394 80.2158 25.7538C80.2158 23.8568 81.3952 23.0423 82.6273 21.8547C81.9428 20.9667 81.2794 20.2468 81.2794 19.0487C81.2794 17.2095 82.8748 16.2268 84.5649 16.2268C86.255 16.2268 87.6556 17.2883 87.6556 19.0697C87.6556 20.5673 86.7236 21.4186 85.6811 22.3067L87.8978 25.2967C88.319 24.4822 88.319 23.5941 88.2611 22.7008L90.1934 22.7218C90.2145 23.0213 90.2303 23.3261 90.2303 23.6309C90.2303 24.9236 89.9302 26.0744 89.1509 27.0991L90.8569 29.3902H88.319L88.3295 29.3954ZM83.9805 23.6572C83.3381 24.3035 82.4641 24.8658 82.4641 25.8905C82.4641 27.1201 83.5592 27.6351 84.6649 27.6351C85.3284 27.6351 86.0497 27.4617 86.5236 26.973L83.9805 23.6572ZM84.5912 18.0502C84.0015 18.0502 83.5066 18.4286 83.5066 19.0539C83.5066 19.737 84.0015 20.3413 84.4227 20.8563C84.9703 20.3991 85.6337 19.7738 85.6337 19.0014C85.6337 18.3918 85.1599 18.0502 84.5912 18.0502Z" fill="#454B52"/>
<path d="M101.182 27.9556C100.313 29.1485 98.8863 29.6582 97.4436 29.6582C95.6956 29.6582 94.1002 29.0171 92.9682 27.6666C91.773 26.2636 91.4097 24.5663 91.4097 22.7849C91.4097 21.8548 91.4886 20.9247 91.7572 20.0366C92.4943 17.4407 94.6057 15.7539 97.3331 15.7539C100.234 15.7539 101.887 17.5353 102.04 20.3571H99.8183C99.5918 18.9751 98.8126 17.9714 97.312 17.9714C94.7531 17.9714 94.0897 20.7513 94.0897 22.8006C94.0897 24.85 94.8847 27.4197 97.3699 27.4197C99.1338 27.4197 99.8182 25.9798 99.892 24.4296H102.209C102.156 25.7171 101.966 26.8889 101.187 27.9504" fill="#454B52"/>
<path d="M7.52929 29.3902L2.59576 22.3066L7.50823 16.0166H10.4673L5.45478 22.2121L10.8043 29.3849H7.52402L7.52929 29.3902ZM0 16.0219H2.57997V29.3902H0V16.0219Z" fill="#454B52"/>
<path d="M21.8351 26.5474C21.1348 28.7807 18.9918 29.6583 16.7857 29.6583C14.5796 29.6583 12.5735 28.828 11.8153 26.6841C11.531 25.8853 11.4941 25.0183 11.4941 24.1828V16.0167H14.0794V23.6835C14.0794 24.498 14.0372 25.5438 14.4585 26.2794C14.9271 27.136 15.9011 27.4145 16.812 27.4145C17.6597 27.4145 18.6338 27.1307 19.1024 26.353C19.5447 25.6173 19.5184 24.6557 19.5184 23.8149V16.0115H22.1036V24.3614C22.1036 25.1023 22.0667 25.838 21.8351 26.5422" fill="#454B52"/>
<path d="M34.9033 29.3903V18.9594L32.039 29.3903H29.3853L26.5579 18.9594V29.3903H24.2412V16.022H27.8268L30.728 26.6473L33.6712 16.022H37.22V29.3903H34.9033Z" fill="#454B52"/>
<path d="M47.3081 29.3903V23.4838H41.9955V29.3903H39.4155V16.022H41.9955V21.3609H47.3081V16.022H49.8881V29.3903H47.3081Z" fill="#454B52"/>
<path d="M57.6439 17.9557C55.0482 17.9557 54.2847 20.5673 54.2847 22.7113C54.2847 24.8553 55.0429 27.4617 57.6597 27.4617C60.2766 27.4617 61.04 24.85 61.04 22.7113C61.04 20.5726 60.245 17.9557 57.6439 17.9557ZM60.682 28.8647C59.7711 29.4165 58.6864 29.6582 57.6439 29.6582C56.7699 29.6582 55.7642 29.4375 54.9745 29.0329C52.4998 27.7665 51.6152 25.3387 51.6152 22.7061C51.6152 20.0734 52.4261 17.798 54.7691 16.4738C55.6379 15.9799 56.6646 15.7539 57.665 15.7539C59.2446 15.7539 60.782 16.3267 61.8772 17.4617C63.2303 18.8438 63.72 20.8353 63.72 22.7113C63.72 25.2074 62.925 27.5142 60.6872 28.8647" fill="#454B52"/>
</g>
<defs>
<clipPath id="clip0_13_184">
<rect width="120" height="29.6583" fill="white"/>
</clipPath>
</defs>
</svg>
