<svg width="278" height="278" viewBox="0 0 278 278" fill="none" xmlns="http://www.w3.org/2000/svg">
<g clip-path="url(#clip0_54_355)">
<path d="M52.8968 109.758C76.5881 109.758 95.7937 90.5605 95.7937 66.8791C95.7937 43.1976 76.5881 24 52.8968 24C29.2056 24 10 43.1976 10 66.8791C10 90.5605 29.2056 109.758 52.8968 109.758Z" fill="#697060"/>
<path d="M229.291 51.9348C203.247 33.2412 169.331 31.0233 140.803 46.126C123.845 55.1032 84.9634 82.3514 89.401 141.706C92.9406 189.338 118.721 242.831 119.83 245.102C125.008 255.769 135.732 262 146.879 262C151.263 262 155.754 261.049 159.98 258.99C174.931 251.755 181.112 233.748 173.874 218.857C167.799 206.394 151.58 167.423 149.309 137.27C148.78 130.089 149.626 123.805 151.686 118.26C151.686 118.26 164.576 66.1926 180.161 58.9052L183.119 96.4508C183.647 96.5036 184.176 96.6093 184.704 96.7149C190.779 91.1174 214.341 69.625 220.258 68.6745L202.718 127.765C200.658 136.003 196.009 144.241 182.591 150.895C167.746 158.288 161.671 176.295 169.067 191.186C176.463 206.025 194.477 212.098 209.375 204.705C239.698 189.655 257.766 165.469 262.996 132.887C268.067 101.415 255.177 70.3643 229.397 51.8819L229.291 51.9348Z" fill="#697060"/>
</g>
<defs>
<clipPath id="clip0_54_355">
<rect width="254" height="238" fill="white" transform="translate(10 24)"/>
</clipPath>
</defs>
</svg>
