<svg width="292" height="58" viewBox="0 0 292 58" fill="none" xmlns="http://www.w3.org/2000/svg">
<g clip-path="url(#clip0_19_1178)">
<path d="M10.3784 20.899C16.1102 20.899 20.7567 16.2206 20.7567 10.4495C20.7567 4.67839 16.1102 0 10.3784 0C4.64655 0 0 4.67839 0 10.4495C0 16.2206 4.64655 20.899 10.3784 20.899Z" fill="white"/>
<path d="M53.0544 6.80759C46.7533 2.25202 38.5477 1.71153 31.6459 5.39202C27.5431 7.57972 18.1361 14.22 19.2097 28.6846C20.0661 40.2923 26.3033 53.3284 26.5717 53.8817C27.8243 56.4812 30.4189 57.9998 33.1157 57.9998C34.1766 57.9998 35.263 57.7681 36.2855 57.2662C39.9025 55.5032 41.3979 51.1149 39.6469 47.4859C38.1771 44.4489 34.2532 34.9517 33.7037 27.6036C33.5758 25.8534 33.7803 24.3221 34.2788 22.9708C34.2788 22.9708 37.3974 10.2822 41.1679 8.50627L41.8836 17.656C42.0114 17.6689 42.1393 17.6946 42.2671 17.7203C43.7369 16.3563 49.4373 11.1186 50.8688 10.887L46.6255 25.2872C46.127 27.2947 45.0023 29.3023 41.7558 30.9238C38.1643 32.7254 36.6945 37.1137 38.4838 40.7427C40.2732 44.3588 44.6316 45.8387 48.2359 44.0371C55.5723 40.3695 59.9435 34.4756 61.2088 26.5355C62.4358 18.8657 59.3172 11.2988 53.08 6.79472L53.0544 6.80759Z" fill="white"/>
</g>
<g clip-path="url(#clip1_19_1178)">
<path d="M90.1188 13.4637C82.4314 13.4637 80.188 14.0326 80.188 15.9638C80.188 18.0447 82.0426 18.5986 88.9971 18.5986C92.4519 18.5986 96.5947 18.2992 100.438 17.8201C101.126 17.7303 101.515 18.0746 101.56 18.8531L101.74 21.2333C101.784 21.8771 101.44 22.2214 100.708 22.3112C96.819 22.7903 93.7979 23.0448 91.3003 23.0897V24.7813C91.3003 25.4699 91.6443 25.8143 92.3771 25.8592C95.7422 25.9939 100.797 25.8143 103.938 25.5149C104.671 25.425 105.105 25.8143 105.105 26.5478V28.8832C105.105 29.6167 104.805 29.961 104.028 30.0509C100.917 30.3952 94.785 30.485 88.7428 30.4401C80.8461 30.3952 76.1798 30.3054 73.5925 30.006C72.8596 29.9161 72.5156 29.5718 72.5156 28.8383V26.5029C72.5156 25.7694 72.9493 25.425 73.6822 25.4699C76.9575 25.6795 82.6557 25.8592 86.978 25.9041C86.5892 25.6945 86.3349 25.3053 86.3349 24.7364V23.0448C78.2587 22.6555 75.2376 20.6196 75.2376 15.9638C75.2226 10.7541 79.1112 8.92773 90.2384 8.92773C92.6164 8.92773 94.6355 9.06247 100.079 9.36187C100.812 9.40678 101.156 9.79601 101.156 10.4846V12.82C101.156 13.5087 100.767 13.8979 100.035 13.853C94.9346 13.5536 92.3921 13.4637 90.1038 13.4637H90.1188ZM89.1167 32.1317C98.6586 32.1317 103.235 34.512 103.235 39.5271C103.235 44.5421 98.6586 46.9524 89.1167 46.9524C79.5748 46.9524 74.9983 44.5272 74.9983 39.5271C74.9983 34.527 79.5748 32.1317 89.1167 32.1317ZM89.1167 42.5062C95.5926 42.5062 98.2697 41.6379 98.2697 39.5271C98.2697 37.4163 95.6824 36.5929 89.1167 36.5929C82.5511 36.5929 79.9637 37.4163 79.9637 39.5271C79.9637 41.6379 82.6408 42.5062 89.1167 42.5062Z" fill="white"/>
<path d="M128.48 46.9071C115.917 46.9071 112.985 45.8742 112.985 41.428C112.985 37.2812 115.752 36.1135 125.982 36.1135C128.315 36.1135 130.813 36.2034 133.056 36.1135C134.657 36.0686 135.21 35.7692 135.21 34.856C135.21 33.9428 134.686 33.5237 133.176 33.5237C128.809 33.5237 119.581 33.8231 114.78 34.1225C114.137 34.1674 113.838 33.8231 113.838 33.1344V31.1883C113.838 30.5446 114.092 30.2302 114.78 30.2003C117.502 30.0206 120.643 29.9008 123.843 29.7661V28.5984C123.843 28.1194 124.023 27.7301 124.367 27.5206C120.045 27.5206 114.302 27.3858 111.026 27.0864C110.383 27.0415 110.039 26.6972 110.039 26.0535V23.9427C110.039 23.254 110.428 22.9546 111.116 22.9995C113.838 23.2091 118.37 23.3888 126.266 23.4337C132.308 23.4786 138.44 23.3888 141.551 23.0444C142.239 22.9546 142.628 23.2989 142.628 23.9876V26.0684C142.628 26.7571 142.329 27.0565 141.641 27.1463C138.485 27.4457 133.266 27.5355 129.901 27.5355C129.168 27.5355 128.824 27.9248 128.824 28.6134V29.6913C131.546 29.6463 134.133 29.6463 136.167 29.6913C139.054 29.7811 140.145 30.7242 140.145 32.85C140.145 34.5716 139.069 35.9638 137.334 36.5177H138.889C139.532 36.5177 139.801 36.8171 139.801 37.4758V39.2423C139.801 39.931 139.502 40.2304 138.889 40.2004C136.212 40.0657 131.935 40.0208 126.072 40.0208C118.863 40.0208 117.951 40.2304 117.951 41.5328C117.951 43.0448 119.671 43.0448 128.435 43.0448C131.635 43.0448 136.586 42.7454 139.831 42.3112C140.474 42.2214 140.818 42.5208 140.863 43.1795L140.998 45.1257C141.043 45.8143 140.788 46.1137 140.13 46.2035C136.975 46.6377 131.755 46.9371 128.48 46.9371V46.9071ZM139.098 17.4904C139.786 17.4904 140.086 17.7898 140.086 18.4785V20.5893C140.086 21.233 139.786 21.5773 139.098 21.5773H117.607C115.109 21.5773 113.628 20.3647 113.628 18.209V10.7089C113.628 9.5412 114.197 8.94238 115.348 8.94238H135.285C137.872 8.94238 139.472 10.3646 139.472 12.655C139.472 14.691 138.171 16.5024 136.451 17.4904H139.083H139.098ZM134.522 14.676C134.522 13.5532 133.834 12.9544 132.578 12.9544H119.491C118.893 12.9544 118.579 13.2538 118.579 13.8676V16.4126C118.579 17.191 119.102 17.5803 120.045 17.5803H131.606C133.251 17.5803 134.492 16.3228 134.492 14.691L134.522 14.676Z" fill="white"/>
<path d="M147.609 40.9491V38.5688C147.609 37.8353 148.043 37.446 148.776 37.5359C151.887 37.8802 157.705 38.2694 162.505 38.3592C161.862 38.0598 161.429 37.3712 161.429 36.5029V31.398H156.598C153.397 31.398 151.423 29.7064 151.289 26.862L150.645 11.3528C150.601 10.6641 151.034 10.23 151.767 10.23H154.489C155.177 10.23 155.566 10.6192 155.611 11.3528L155.79 15.5894H172.062L172.197 11.3528C172.242 10.6192 172.631 10.23 173.319 10.23H176.041C176.773 10.23 177.207 10.6641 177.162 11.3528L176.519 26.862C176.385 29.7213 174.41 31.398 171.21 31.398H166.424V36.8921C166.424 37.8353 166.903 38.2245 167.934 38.2245C171.644 38.2245 176.13 37.97 179.077 37.5808C179.81 37.4909 180.243 37.8802 180.243 38.6137V40.994C180.243 41.7275 179.944 42.027 179.166 42.1617C176.235 42.6407 170.492 42.8952 163.881 42.8952C157.271 42.8952 151.962 42.6407 148.731 42.1168C147.953 41.982 147.654 41.6377 147.654 40.9491H147.609ZM156.104 25.0057C156.149 26.1734 156.792 26.7722 158.049 26.7722H169.699C170.956 26.7722 171.644 26.1734 171.688 25.0057L171.868 20.2152H155.94L156.119 25.0057H156.104Z" fill="white"/>
<path d="M185.162 40.9491V38.5688C185.162 37.8353 185.596 37.446 186.329 37.5359C189.44 37.8802 195.257 38.2694 200.058 38.3592C199.415 38.0598 198.981 37.3712 198.981 36.5029V32.8352C191.817 32.401 188.752 30.1106 188.752 25.6644C188.752 20.6493 192.64 18.4038 201.793 18.4038C210.946 18.4038 214.835 20.6493 214.835 25.6644C214.835 30.2453 211.559 32.5358 203.962 32.8801V36.8921C203.962 37.8353 204.44 38.2245 205.472 38.2245C209.181 38.2245 213.668 37.97 216.614 37.5808C217.347 37.491 217.781 37.8802 217.781 38.6137V40.994C217.781 41.7276 217.482 42.027 216.704 42.1617C213.773 42.6408 208.03 42.8952 201.419 42.8952C194.809 42.8952 189.499 42.6407 186.269 42.1168C185.491 41.9821 185.192 41.6377 185.192 40.9491H185.162ZM214.895 11.1432C215.627 11.1432 215.971 11.4875 215.971 12.221V14.8109C215.971 15.5445 215.627 15.8888 214.895 15.8888H188.647C187.914 15.8888 187.57 15.5445 187.57 14.8109V12.221C187.57 11.4875 187.914 11.1432 188.647 11.1432H200.208C199.729 10.8887 199.475 10.3647 199.475 9.63118V8.67308C199.475 7.93953 199.819 7.59521 200.552 7.59521H203.363C204.096 7.59521 204.44 7.93953 204.44 8.67308V10.3198C204.44 10.8737 204.739 11.1432 205.383 11.1432H214.88H214.895ZM201.778 28.374C207.91 28.374 209.854 27.6405 209.854 25.6494C209.854 23.6584 207.91 22.9248 201.778 22.9248C195.646 22.9248 193.702 23.6584 193.702 25.6494C193.702 27.6405 195.646 28.374 201.778 28.374Z" fill="white"/>
<path d="M222.538 29.1524C221.85 29.1524 221.551 28.7632 221.551 28.0746V25.6943C221.551 24.9607 221.895 24.6164 222.628 24.6164C225.903 24.6164 228.146 21.5026 228.146 17.3109V10.0503C228.146 9.31673 228.49 8.97242 229.223 8.97242H231.811C232.543 8.97242 232.887 9.31673 232.887 10.0503V17.3109C232.887 21.5026 235.131 24.6164 238.406 24.6164C239.139 24.6164 239.483 24.9607 239.483 25.6943V28.0746C239.483 28.7632 239.184 29.1524 238.496 29.1524C235.041 29.1524 231.721 26.862 230.509 23.5835C229.298 26.862 225.978 29.1524 222.523 29.1524H222.538ZM228.924 32.9549H231.511C232.244 32.9549 232.723 33.4339 232.633 34.1226C232.499 35.1555 232.379 36.7124 232.379 38.4041C232.379 40.9939 234.069 42.3862 236.701 42.3862C244.777 42.3862 250.341 42.1317 255.441 41.6526C256.129 41.5628 256.518 41.9071 256.563 42.6856L256.742 45.0659C256.787 45.7096 256.443 46.0539 255.71 46.1437C251.433 46.5779 244.493 46.9222 236.94 46.9222C230.943 46.9222 227.443 43.8982 227.443 38.8831C227.443 37.0717 227.533 35.1705 227.698 34.0926C227.832 33.3591 228.221 32.9699 228.954 32.9699L228.924 32.9549ZM242.265 14.6761C243.252 14.6761 243.566 14.3767 243.566 13.5084V9.49638C243.566 8.76283 243.91 8.41851 244.643 8.41851H247.23C247.963 8.41851 248.307 8.76283 248.307 9.49638V33.5238C248.307 34.2573 247.963 34.6016 247.23 34.6016H244.643C243.91 34.6016 243.566 34.2573 243.566 33.5238V18.6582C243.312 19.1373 242.698 19.4367 242.1 19.4367H238.346C237.613 19.4367 237.269 19.0924 237.269 18.3588V15.7689C237.269 15.0354 237.613 14.6911 238.346 14.6911H242.28L242.265 14.6761ZM255.65 33.5238C255.65 34.2573 255.306 34.6016 254.573 34.6016H251.986C251.253 34.6016 250.909 34.2573 250.909 33.5238V9.06224C250.909 8.32869 251.253 7.98438 251.986 7.98438H254.573C255.306 7.98438 255.65 8.32869 255.65 9.06224V33.5238Z" fill="white"/>
<path d="M272.432 40.8143C265.701 40.8143 261.604 36.6675 261.604 30.0506C261.604 22.79 265.492 19.1223 273.344 19.1223C275.542 19.1223 277.397 19.257 278.952 19.5115C279.685 19.6463 279.984 20.0355 279.984 20.769V23.2242C279.984 24.0026 279.595 24.3469 278.908 24.2571C277.098 24.0475 275.288 23.9128 274.032 23.9128C268.857 23.9128 266.569 25.9488 266.569 30.1405C266.569 33.8082 268.902 36.0537 273.045 36.0537C274.735 36.0537 277.098 35.5298 279.82 34.6316C280.029 34.5417 280.209 34.5417 280.388 34.5417C280.867 34.5417 281.166 34.7962 281.33 35.3202L281.973 37.6556C282.183 38.3891 281.974 38.7783 281.241 39.0777C278.653 40.1556 275.333 40.7993 272.432 40.7993V40.8143ZM262.082 14.3767V11.7868C262.082 11.0533 262.426 10.709 263.159 10.709H279.685C280.418 10.709 280.762 11.0533 280.762 11.7868V14.3767C280.762 15.1103 280.418 15.4546 279.685 15.4546H263.159C262.426 15.4546 262.082 15.1103 262.082 14.3767ZM287.537 7.98438H290.259C290.947 7.98438 291.381 8.41851 291.381 9.15206V45.0958C291.381 45.8294 290.947 46.2635 290.259 46.2635H287.537C286.849 46.2635 286.415 45.8294 286.415 45.0958V30.0656C286.116 30.6345 285.503 30.9339 284.651 30.9339H281.839C281.106 30.9339 280.762 30.5896 280.762 29.856V27.2662C280.762 26.5326 281.106 26.1883 281.839 26.1883H284.905C285.937 26.1883 286.415 25.7542 286.415 24.811V9.15206C286.415 8.41851 286.849 7.98438 287.537 7.98438Z" fill="white"/>
</g>
<defs>
<clipPath id="clip0_19_1178">
<rect width="61.4521" height="57.9998" fill="white"/>
</clipPath>
<clipPath id="clip1_19_1178">
<rect width="218.88" height="39.357" fill="white" transform="translate(72.5 7.59521)"/>
</clipPath>
</defs>
</svg>
