<svg width="31" height="29" viewBox="0 0 31 29" fill="none" xmlns="http://www.w3.org/2000/svg">
<g clip-path="url(#clip0_41_696)">
<path d="M5.0798 10.2292C7.8853 10.2292 10.1596 7.93934 10.1596 5.11462C10.1596 2.28989 7.8853 0 5.0798 0C2.27431 0 0 2.28989 0 5.11462C0 7.93934 2.27431 10.2292 5.0798 10.2292Z" fill="#696F5F"/>
<path d="M25.9665 3.33208C22.8823 1.1023 18.8661 0.837755 15.4879 2.63921C13.4797 3.71 8.87536 6.96018 9.40085 14.04C9.82 19.7215 12.8729 26.1022 13.0043 26.373C13.6173 27.6454 14.8873 28.3887 16.2073 28.3887C16.7265 28.3887 17.2583 28.2753 17.7588 28.0296C19.5292 27.1667 20.2611 25.0188 19.4041 23.2425C18.6846 21.756 16.7641 17.1075 16.4951 13.5109C16.4325 12.6543 16.5326 11.9047 16.7766 11.2434C16.7766 11.2434 18.303 5.03275 20.1485 4.16352L20.4988 8.64196C20.5614 8.64825 20.624 8.66085 20.6865 8.67345C21.406 8.00578 24.1961 5.44217 24.8968 5.32879L22.8198 12.3771C22.5758 13.3597 22.0253 14.3424 20.4363 15.136C18.6784 16.0178 17.9589 18.1657 18.8348 19.942C19.7106 21.7119 21.8439 22.4363 23.608 21.5545C27.1989 19.7593 29.3385 16.8745 29.9578 12.9881C30.5584 9.23404 29.0319 5.53035 25.979 3.32578L25.9665 3.33208Z" fill="#696F5F"/>
</g>
<defs>
<clipPath id="clip0_41_696">
<rect width="30.0784" height="28.3886" fill="white"/>
</clipPath>
</defs>
</svg>
